<?xml version="1.0" encoding="utf-8"?>
<!-- Generator: Adobe Illustrator 27.6.1, SVG Export Plug-In . SVG Version: 6.00 Build 0)  -->
<svg version="1.1" id="wrteam_logo" xmlns="http://www.w3.org/2000/svg" xmlns:xlink="http://www.w3.org/1999/xlink" x="0px"
	 y="0px" viewBox="0 0 84.6 23.6" style="enable-background:new 0 0 84.6 23.6;" xml:space="preserve">
<style type="text/css">
	.st0{clip-path:url(#SVGID_00000140695026118459832760000010219202280486409350_);}
	.st1{display:none;opacity:0.66;clip-path:url(#SVGID_00000140695026118459832760000010219202280486409350_);}
	.st2{fill:#FFFFFF;}
	.st3{fill:url(#SVGID_00000161589521715940153590000001449869909477917847_);}
	.st4{fill:url(#SVGID_00000165938314963923858790000005417770332744705194_);}
	.st5{fill:url(#SVGID_00000098210407689580337730000003722964968118454930_);}
	.st6{fill:url(#SVGID_00000172406543629126588660000016104115116600179134_);}
	.st7{fill:url(#SVGID_00000147915314574517126290000008866823924037995175_);}
	.st8{font-family:'Poppins-ExtraBold';}
	.st9{font-size:10.2077px;}
	.st10{fill:#007889;}
	.st11{fill:#1E1E1E;}
</style>
<g>
	<g>
		<g>
			<defs>
				<path id="SVGID_1_" d="M36.2,20.7l-2.7-4.5l-0.6-1.1l-0.1-0.5l0.5-0.8c0.1-0.2,0.2-0.5,0.2-0.7l-0.3-1.8l2.7-0.1
					c0.8,0,1.2-0.8,0.9-1.5l-1.9-3.6l0.5,3.2h-2.5l0-0.1L29.3,4c-0.4-0.5-0.9-1-1.5-1.2l-4.3-1.7c-1-0.4-2.1-0.2-2.9,0.4
					C18.3,3,13.8,6.2,10.4,8v0C10,8.2,7.7,9.2,8.8,7.6c0.9-1.3,2.7-2.8-1-1.7L6.3,6.4c0,0,1,0.8,1.6-0.3c0.4-0.1,1-0.3,1.3-0.2
					C9.6,6,7.9,7,7.5,8.4C7.3,9.5,8.1,10,9.5,9.7l-4.2,7.2l-2,4.5l0.3,1.3h2.3l-1.1-1.5l1.4-2.1l2.4-0.4c0,0,2.4-2,3-2
					c0.6,0,1.2-0.1,1.2-0.1v1.8l3.4,4.3h2.4c-0.4-1-1.9-1.6-1.9-1.6l-1.3-2.9l0.9-1.8l3.1,0.7l0.7,4.1l0.4,1.5h2.3L21.6,21l0.4-3.3
					l2.6-1.5l1-3.4l-0.1,1.3c0,0.5,0.2,0.9,0.7,1l2.7,1.2l-0.2,1.1c-0.1,0.3,0,0.6,0.3,0.8l0.6,0.5c0.2,0.1,0.4,0.2,0.6,0.2h1.9
					c0.2,0,0.4-0.1,0.4-0.3l0.5-1l0.1,1.7l1.9,1.8l0.2,1.5h2.4L36.2,20.7z"/>
			</defs>
			<clipPath id="SVGID_00000098185079232892441800000010085828655607135669_">
				<use xlink:href="#SVGID_1_"  style="overflow:visible;"/>
			</clipPath>
			<g style="clip-path:url(#SVGID_00000098185079232892441800000010085828655607135669_);">
				
					<image style="overflow:visible;" width="800" height="1200" xlink:href="../../../../../bullsoft/bullsoft/background.png"  transform="matrix(6.286490e-02 0 0 6.286490e-02 -2.9422 -31.6281)">
				</image>
			</g>
			<g style="clip-path:url(#SVGID_00000098185079232892441800000010085828655607135669_);">
				
					<image style="overflow:visible;" width="109" height="96" xlink:href="433927E9130627B2.png"  transform="matrix(1 0 0 1 -34 -36.4)">
				</image>
			</g>
			<g style="display:none;opacity:0.66;clip-path:url(#SVGID_00000098185079232892441800000010085828655607135669_);">
				
					<image style="display:inline;overflow:visible;" width="107" height="95" xlink:href="433927E9130627B6.png"  transform="matrix(1 0 0 1 -33 -35.4)">
				</image>
			</g>
		</g>
		<path class="st2" d="M28.9,14.6l-1.2-1.8v0.9c0,0.2,0.1,0.4,0.3,0.5l0.3,0.2c0.1,0.1,0.3,0.1,0.4,0.1H28.9z"/>
		<path class="st2" d="M26.9,9.3h-2.8l0.5-3.2l-1.9,3.6c-0.4,0.7,0.1,1.5,0.9,1.5l4.2,0.2C27.7,11.4,28,10.2,26.9,9.3z"/>
		
			<linearGradient id="SVGID_00000106134537156945253630000009197716879319193739_" gradientUnits="userSpaceOnUse" x1="13.4124" y1="19.6075" x2="14.7358" y2="15.8262">
			<stop  offset="5.291010e-03" style="stop-color:#816F5E;stop-opacity:0"/>
			<stop  offset="1" style="stop-color:#41464F"/>
		</linearGradient>
		<polygon style="fill:url(#SVGID_00000106134537156945253630000009197716879319193739_);" points="16.3,16.4 15.8,17.4 12.7,16.9 
			12.7,16.6 		"/>
		
			<linearGradient id="SVGID_00000030484763344081421320000005886862554482285462_" gradientUnits="userSpaceOnUse" x1="30.4885" y1="24.2849" x2="33.627" y2="15.3178">
			<stop  offset="5.291010e-03" style="stop-color:#816F5E;stop-opacity:0"/>
			<stop  offset="1" style="stop-color:#41464F"/>
		</linearGradient>
		<polygon style="fill:url(#SVGID_00000030484763344081421320000005886862554482285462_);" points="33.4,16.2 33.1,19.4 33,17.7 
			32.8,15.1 		"/>
		
			<linearGradient id="SVGID_00000156556815142026442790000014389651013750780813_" gradientUnits="userSpaceOnUse" x1="35.1397" y1="8.2867" x2="32.4368" y2="10.8922">
			<stop  offset="5.291010e-03" style="stop-color:#816F5E;stop-opacity:0"/>
			<stop  offset="1" style="stop-color:#41464F"/>
		</linearGradient>
		<polygon style="fill:url(#SVGID_00000156556815142026442790000014389651013750780813_);" points="33.1,11.3 32.7,9.3 33.1,9.3 
			33.3,11.3 		"/>
		
			<linearGradient id="SVGID_00000008833609652909149860000017422059865036270760_" gradientUnits="userSpaceOnUse" x1="24.5008" y1="11.1787" x2="23.6972" y2="4.3849">
			<stop  offset="5.291010e-03" style="stop-color:#816F5E;stop-opacity:0"/>
			<stop  offset="1" style="stop-color:#41464F"/>
		</linearGradient>
		<polygon style="fill:url(#SVGID_00000008833609652909149860000017422059865036270760_);" points="24.1,9.3 23.6,9.3 24.6,6.1 		
			"/>
		
			<linearGradient id="SVGID_00000164489508591351065960000006098142742535198594_" gradientUnits="userSpaceOnUse" x1="39.7198" y1="12.5087" x2="34.7523" y2="7.5168">
			<stop  offset="5.291010e-03" style="stop-color:#816F5E;stop-opacity:0"/>
			<stop  offset="1" style="stop-color:#41464F"/>
		</linearGradient>
		<polygon style="fill:url(#SVGID_00000164489508591351065960000006098142742535198594_);" points="35.2,9.3 35.7,9.3 34.7,6.1 		
			"/>
	</g>
	<g>
		<g>
			<text transform="matrix(1 0 0 1 40.2142 13.0173)" class="st2 st8 st9">BullSoft</text>
			<g>
				<text transform="matrix(1 0 0 1 40.2142 13.0173)" class="st10 st8 st9">BullSoft</text>
			</g>
		</g>
		<g>
			<g>
				<g>
					<path class="st11" d="M42.1,16.5c0,0.2,0,0.3-0.1,0.4c-0.1,0.1-0.2,0.2-0.3,0.3c-0.1,0.1-0.3,0.1-0.5,0.1c-0.1,0-0.2,0-0.3,0
						c-0.1,0-0.2,0-0.2,0c-0.1,0-0.1,0-0.2-0.1v-0.3c0.1,0,0.2,0.1,0.3,0.1s0.3,0,0.4,0c0.1,0,0.2,0,0.3-0.1c0.1,0,0.2-0.1,0.2-0.2
						c0-0.1,0.1-0.1,0.1-0.2c0-0.1,0-0.2-0.1-0.2c0-0.1-0.1-0.1-0.2-0.2c-0.1-0.1-0.2-0.1-0.4-0.2c-0.1,0-0.2-0.1-0.3-0.1
						s-0.2-0.1-0.2-0.2c-0.1-0.1-0.1-0.1-0.1-0.2c0-0.1,0-0.2,0-0.3c0-0.1,0-0.3,0.1-0.4c0.1-0.1,0.2-0.2,0.3-0.2s0.3-0.1,0.4-0.1
						c0.1,0,0.3,0,0.4,0c0.1,0,0.2,0.1,0.3,0.1L41.9,15c-0.1,0-0.2-0.1-0.3-0.1c-0.1,0-0.2,0-0.3,0c-0.1,0-0.2,0-0.3,0.1
						c-0.1,0-0.1,0.1-0.2,0.1c0,0.1-0.1,0.1-0.1,0.2c0,0.1,0,0.2,0.1,0.2c0,0.1,0.1,0.1,0.2,0.2s0.2,0.1,0.3,0.2
						c0.2,0.1,0.3,0.1,0.4,0.2c0.1,0.1,0.2,0.1,0.2,0.2C42,16.3,42.1,16.4,42.1,16.5z"/>
					<path class="st11" d="M45,16.2c0,0.2,0,0.3-0.1,0.4c0,0.1-0.1,0.2-0.2,0.3s-0.2,0.2-0.3,0.2c-0.1,0-0.2,0.1-0.4,0.1
						c-0.1,0-0.3,0-0.4-0.1c-0.1,0-0.2-0.1-0.3-0.2c-0.1-0.1-0.1-0.2-0.2-0.3c0-0.1-0.1-0.3-0.1-0.4c0-0.2,0-0.4,0.1-0.6
						c0.1-0.2,0.2-0.3,0.3-0.4c0.1-0.1,0.3-0.1,0.5-0.1c0.2,0,0.3,0,0.5,0.1s0.2,0.2,0.3,0.4C45,15.8,45,16,45,16.2z M43.5,16.2
						c0,0.2,0,0.3,0.1,0.4c0,0.1,0.1,0.2,0.2,0.3C43.9,17,44,17,44.1,17c0.1,0,0.3,0,0.3-0.1c0.1-0.1,0.2-0.2,0.2-0.3
						c0-0.1,0.1-0.3,0.1-0.4c0-0.2,0-0.3-0.1-0.4c0-0.1-0.1-0.2-0.2-0.3c-0.1-0.1-0.2-0.1-0.3-0.1c-0.2,0-0.4,0.1-0.5,0.2
						C43.6,15.8,43.5,16,43.5,16.2z"/>
					<path class="st11" d="M47.2,15.5h-0.5v1.8h-0.3v-1.8H46v-0.1l0.4-0.1v-0.1c0-0.2,0-0.3,0.1-0.4c0-0.1,0.1-0.2,0.2-0.2
						s0.2-0.1,0.3-0.1c0.1,0,0.1,0,0.2,0c0.1,0,0.1,0,0.2,0l-0.1,0.2c0,0-0.1,0-0.1,0c-0.1,0-0.1,0-0.2,0c-0.1,0-0.2,0-0.3,0.1
						c-0.1,0.1-0.1,0.2-0.1,0.4v0.1h0.5V15.5z"/>
					<path class="st11" d="M48.9,17c0,0,0.1,0,0.2,0c0.1,0,0.1,0,0.1,0v0.2c0,0-0.1,0-0.1,0c-0.1,0-0.1,0-0.2,0
						c-0.1,0-0.2,0-0.3-0.1c-0.1,0-0.2-0.1-0.2-0.2c-0.1-0.1-0.1-0.2-0.1-0.4v-1.2H48v-0.1l0.3-0.1l0.1-0.4h0.2v0.5h0.6v0.2h-0.6
						v1.2c0,0.1,0,0.2,0.1,0.3S48.8,17,48.9,17z"/>
					<path class="st11" d="M52,17.2l-0.4-1.2c0,0,0-0.1,0-0.1c0,0,0-0.1,0-0.1c0,0,0-0.1,0-0.1c0,0,0-0.1,0-0.1h0c0,0,0,0.1,0,0.1
						c0,0,0,0.1,0,0.1c0,0,0,0.1,0,0.1c0,0,0,0.1,0,0.1L51,17.2h-0.3l-0.5-2h0.3l0.3,1.1c0,0.1,0,0.1,0.1,0.2c0,0.1,0,0.1,0,0.2
						s0,0.1,0,0.2h0c0,0,0-0.1,0-0.1c0,0,0-0.1,0-0.1s0-0.1,0-0.1s0-0.1,0-0.1l0.4-1.2h0.3l0.4,1.2c0,0.1,0,0.1,0.1,0.2
						c0,0.1,0,0.1,0,0.2c0,0.1,0,0.1,0,0.2h0c0,0,0-0.1,0-0.2s0-0.1,0-0.2c0-0.1,0-0.1,0.1-0.2l0.3-1.1h0.3l-0.6,2H52z"/>
					<path class="st11" d="M54.7,15.2c0.2,0,0.4,0.1,0.5,0.2s0.2,0.3,0.2,0.5v1.4h-0.2l-0.1-0.3h0C55.1,17,55,17.1,55,17.1
						c-0.1,0-0.1,0.1-0.2,0.1s-0.2,0-0.3,0c-0.1,0-0.2,0-0.3-0.1c-0.1,0-0.2-0.1-0.2-0.2s-0.1-0.2-0.1-0.3c0-0.2,0.1-0.4,0.2-0.5
						c0.2-0.1,0.4-0.2,0.7-0.2l0.3,0v-0.1c0-0.2,0-0.3-0.1-0.4c-0.1-0.1-0.2-0.1-0.3-0.1c-0.1,0-0.2,0-0.3,0s-0.2,0.1-0.3,0.1
						l-0.1-0.2c0.1,0,0.2-0.1,0.3-0.1C54.5,15.2,54.6,15.2,54.7,15.2z M55.2,16.3l-0.3,0c-0.2,0-0.4,0-0.5,0.1
						c-0.1,0.1-0.2,0.2-0.2,0.3c0,0.1,0,0.2,0.1,0.3s0.2,0.1,0.3,0.1c0.2,0,0.3,0,0.4-0.1c0.1-0.1,0.2-0.2,0.2-0.4V16.3z"/>
					<path class="st11" d="M57.7,15.2c0,0,0.1,0,0.1,0c0,0,0.1,0,0.1,0l0,0.3c0,0-0.1,0-0.1,0s-0.1,0-0.1,0c-0.1,0-0.2,0-0.2,0
						c-0.1,0-0.1,0.1-0.2,0.1c-0.1,0.1-0.1,0.1-0.1,0.2c0,0.1,0,0.2,0,0.3v1.1h-0.3v-2h0.3l0,0.4h0c0-0.1,0.1-0.1,0.1-0.2
						c0.1-0.1,0.1-0.1,0.2-0.1C57.5,15.2,57.6,15.2,57.7,15.2z"/>
					<path class="st11" d="M59.8,15.2c0.2,0,0.3,0,0.4,0.1s0.2,0.2,0.3,0.3c0.1,0.1,0.1,0.3,0.1,0.5v0.2h-1.4c0,0.2,0.1,0.4,0.2,0.5
						c0.1,0.1,0.3,0.2,0.5,0.2c0.1,0,0.2,0,0.3,0c0.1,0,0.2-0.1,0.3-0.1v0.3c-0.1,0-0.2,0.1-0.3,0.1c-0.1,0-0.2,0-0.3,0
						c-0.2,0-0.4,0-0.5-0.1s-0.3-0.2-0.3-0.3C59,16.7,59,16.5,59,16.3c0-0.2,0-0.4,0.1-0.6s0.2-0.3,0.3-0.4
						C59.5,15.3,59.7,15.2,59.8,15.2z M59.8,15.5c-0.2,0-0.3,0.1-0.4,0.2s-0.2,0.3-0.2,0.4h1.1c0-0.1,0-0.2-0.1-0.3
						c0-0.1-0.1-0.2-0.2-0.2C60.1,15.5,60,15.5,59.8,15.5z"/>
					<path class="st11" d="M64,17.2h-0.3v-2.7h1.5v0.3H64v1h1.1v0.3H64V17.2z"/>
					<path class="st11" d="M67.9,15.2v2h-0.2l0-0.3h0c0,0.1-0.1,0.1-0.2,0.2s-0.1,0.1-0.2,0.1s-0.2,0-0.3,0c-0.2,0-0.3,0-0.4-0.1
						s-0.2-0.1-0.2-0.2c-0.1-0.1-0.1-0.2-0.1-0.4v-1.3h0.3v1.3c0,0.2,0,0.3,0.1,0.4C66.8,17,66.9,17,67,17c0.1,0,0.3,0,0.4-0.1
						s0.2-0.1,0.2-0.2c0-0.1,0.1-0.2,0.1-0.4v-1H67.9z"/>
					<path class="st11" d="M70.1,15.2c0.2,0,0.3,0,0.4,0.1s0.2,0.2,0.3,0.3c0.1,0.1,0.1,0.3,0.1,0.5v0.2h-1.4c0,0.2,0.1,0.4,0.2,0.5
						C69.8,17,70,17,70.2,17c0.1,0,0.2,0,0.3,0c0.1,0,0.2-0.1,0.3-0.1v0.3c-0.1,0-0.2,0.1-0.3,0.1c-0.1,0-0.2,0-0.3,0
						c-0.2,0-0.4,0-0.5-0.1s-0.3-0.2-0.3-0.3c-0.1-0.2-0.1-0.3-0.1-0.6c0-0.2,0-0.4,0.1-0.6s0.2-0.3,0.3-0.4
						C69.8,15.3,69.9,15.2,70.1,15.2z M70.1,15.5c-0.2,0-0.3,0.1-0.4,0.2s-0.2,0.3-0.2,0.4h1.1c0-0.1,0-0.2-0.1-0.3
						c0-0.1-0.1-0.2-0.2-0.2C70.3,15.5,70.2,15.5,70.1,15.5z"/>
					<path class="st11" d="M73.1,15.2c0,0,0.1,0,0.1,0c0,0,0.1,0,0.1,0l0,0.3c0,0-0.1,0-0.1,0s-0.1,0-0.1,0c-0.1,0-0.2,0-0.2,0
						c-0.1,0-0.1,0.1-0.2,0.1c-0.1,0.1-0.1,0.1-0.1,0.2c0,0.1,0,0.2,0,0.3v1.1h-0.3v-2h0.3l0,0.4h0c0-0.1,0.1-0.1,0.1-0.2
						c0.1-0.1,0.1-0.1,0.2-0.1C72.9,15.2,73,15.2,73.1,15.2z"/>
					<path class="st11" d="M75.1,17c0,0,0.1,0,0.2,0c0.1,0,0.1,0,0.1,0v0.2c0,0-0.1,0-0.1,0c-0.1,0-0.1,0-0.2,0
						c-0.1,0-0.2,0-0.3-0.1c-0.1,0-0.2-0.1-0.2-0.2c-0.1-0.1-0.1-0.2-0.1-0.4v-1.2h-0.3v-0.1l0.3-0.1l0.1-0.4h0.2v0.5h0.6v0.2h-0.6
						v1.2c0,0.1,0,0.2,0.1,0.3S75,17,75.1,17z"/>
					<path class="st11" d="M77.3,15.2c0.2,0,0.3,0,0.4,0.1s0.2,0.2,0.3,0.3c0.1,0.1,0.1,0.3,0.1,0.5v0.2h-1.4c0,0.2,0.1,0.4,0.2,0.5
						C77,17,77.1,17,77.3,17c0.1,0,0.2,0,0.3,0c0.1,0,0.2-0.1,0.3-0.1v0.3c-0.1,0-0.2,0.1-0.3,0.1c-0.1,0-0.2,0-0.3,0
						c-0.2,0-0.4,0-0.5-0.1s-0.3-0.2-0.3-0.3c-0.1-0.2-0.1-0.3-0.1-0.6c0-0.2,0-0.4,0.1-0.6s0.2-0.3,0.3-0.4
						C76.9,15.3,77.1,15.2,77.3,15.2z M77.3,15.5c-0.2,0-0.3,0.1-0.4,0.2s-0.2,0.3-0.2,0.4h1.1c0-0.1,0-0.2-0.1-0.3
						c0-0.1-0.1-0.2-0.2-0.2C77.5,15.5,77.4,15.5,77.3,15.5z"/>
				</g>
			</g>
		</g>
	</g>
</g>
</svg>
